<svg version="1.1" id="Layer_1" xmlns="http://www.w3.org/2000/svg" xmlns:xlink="http://www.w3.org/1999/xlink" x="0px" y="0px"
	 width="100%" viewBox="0 0 360 360" enable-background="new 0 0 360 360" xml:space="preserve">
<path fill="#06021D" opacity="1.000000" stroke="none" 
	d="
M169.000000,361.000000 
	C112.686043,361.000000 56.872086,361.000000 1.029063,361.000000 
	C1.029063,241.061020 1.029063,121.122040 1.029063,1.091526 
	C120.897278,1.091526 240.794647,1.091526 360.846008,1.091526 
	C360.846008,120.999847 360.846008,240.999908 360.846008,361.000000 
	C297.122040,361.000000 233.311020,361.000000 169.000000,361.000000 
M243.687851,254.161667 
	C243.900345,253.829498 244.112839,253.497330 244.151932,253.270676 
	C244.151932,253.270676 244.262894,253.440643 244.926117,253.314117 
	C246.243347,251.864761 247.560562,250.415405 248.979706,248.957016 
	C248.979706,248.957016 248.970963,248.855072 249.580200,248.599640 
	C251.033295,245.934433 252.486389,243.269211 254.204132,240.380035 
	C254.240799,240.271118 254.318481,240.157074 254.305634,240.054352 
	C254.278412,239.836624 254.203964,239.624802 254.524017,238.632431 
	C254.600601,238.065018 254.677185,237.497604 255.081680,236.190018 
	C256.631195,228.718475 256.030762,221.622742 251.292252,214.474457 
	C251.166794,214.252731 251.041321,214.030991 251.074432,213.842468 
	C251.074432,213.842468 250.879944,213.739044 250.834167,213.363739 
	C250.834167,213.363739 250.575165,213.088303 250.509827,212.450180 
	C249.718613,211.247726 248.927414,210.045258 248.139175,208.814499 
	C248.139175,208.814499 248.144638,208.784744 248.053391,208.049805 
	C245.753418,203.616837 243.453445,199.183868 241.133987,194.114029 
	C240.962601,193.732712 240.791199,193.351395 240.432938,192.304901 
	C237.257614,186.071686 234.082306,179.838455 230.778900,172.850479 
	C229.752151,170.937088 228.725418,169.023697 227.583908,166.413452 
	C223.927109,159.591797 220.270309,152.770157 216.476974,145.143753 
	C214.559875,141.142365 212.642761,137.140991 210.582642,132.429642 
	C207.145660,125.600822 204.039688,118.579041 200.196976,111.986732 
	C193.842636,101.085686 179.730484,97.971397 169.228622,105.158699 
	C168.767029,105.560013 168.305435,105.961327 167.231934,106.411110 
	C165.463791,108.560646 163.695648,110.710175 161.417664,113.096779 
	C161.279984,113.419724 161.142303,113.742676 160.589325,114.574883 
	C157.691055,120.929626 154.792786,127.284378 151.853348,133.537964 
	C151.853348,133.537964 151.895706,133.623764 151.237091,134.017715 
	C151.070251,134.211624 150.903397,134.405533 150.270950,134.973557 
	C149.765488,136.303543 149.260040,137.633545 148.190231,139.584442 
	C145.092468,145.694229 141.994705,151.804031 138.320831,158.259384 
	C137.889908,159.508774 137.458984,160.758148 136.610733,162.526306 
	C133.083084,169.706955 129.555435,176.887589 125.520218,184.648300 
	C122.529449,190.774445 119.538673,196.900589 116.160240,203.436066 
	C116.135170,203.622452 116.110100,203.808823 115.602371,204.461029 
	C114.694527,206.490387 113.786674,208.519760 112.345909,210.998413 
	C102.031517,228.212143 105.291237,246.439285 120.406273,256.068970 
	C130.024948,262.196960 144.088303,262.194672 151.025803,256.060089 
	C151.025803,256.060089 151.026993,256.193420 151.372849,256.126617 
	C151.736359,255.735168 152.099869,255.343735 153.191910,254.977005 
	C154.213684,254.008499 155.235474,253.040009 156.873749,251.880493 
	C158.248047,250.480698 159.622360,249.080887 161.552856,247.364243 
	C162.713898,245.184357 163.874939,243.004471 165.533310,240.384506 
	C165.807877,239.537796 166.082458,238.691101 166.387497,237.842575 
	C166.387497,237.842575 166.406479,237.820877 166.957672,237.358749 
	C169.905640,231.454315 172.853592,225.549881 176.308838,219.221603 
	C178.009644,216.191132 179.710449,213.160660 181.720612,210.909317 
	C182.175522,211.601379 182.630432,212.293427 183.197906,213.701935 
	C185.523575,218.210129 187.849228,222.718307 190.278442,227.994003 
	C191.891571,230.983749 193.504684,233.973495 195.209366,237.677795 
	C198.414658,244.616623 201.416229,251.713776 209.202957,255.920898 
	C218.926544,261.380157 228.789536,262.932159 239.566574,257.000885 
	C240.044342,256.652588 240.522110,256.304291 241.557526,255.760040 
	C242.112595,255.233505 242.667679,254.706985 243.127777,254.115891 
	C243.127777,254.115891 243.066788,254.213211 243.687851,254.161667 
z"/>
<path fill="#05CDF7" opacity="1.000000" stroke="none" 
	d="
M156.257233,252.071503 
	C155.235474,253.040009 154.213684,254.008499 152.601685,255.042419 
	C151.683304,255.469681 151.355148,255.831543 151.026993,256.193420 
	C151.026993,256.193420 151.025803,256.060089 150.703888,256.127075 
	C148.958450,256.633087 147.550751,257.134338 146.108826,257.500977 
	C137.859482,259.598541 129.809677,259.895203 122.267502,254.997818 
	C111.362770,247.916946 106.453461,238.047012 108.360092,225.323090 
	C109.310493,228.068130 110.033653,230.537415 110.756821,233.006699 
	C111.052795,232.698776 111.348778,232.390869 111.644760,232.082962 
	C113.622787,233.828644 116.325592,235.213699 117.414406,237.401855 
	C119.189224,240.968643 120.684616,241.701050 123.047829,238.673660 
	C125.028244,239.461578 126.669342,240.114502 128.668365,240.876404 
	C134.272369,244.322525 139.519897,243.455551 144.704742,241.315155 
	C142.821274,243.258224 141.001022,244.876984 139.278732,246.408615 
	C145.131271,248.914520 149.651047,253.904907 156.257233,252.071503 
z"/>
<path fill="#EE0D79" opacity="1.000000" stroke="none" 
	d="
M167.843826,106.362648 
	C168.305435,105.961327 168.767029,105.560013 169.967056,105.056549 
	C172.603546,104.436661 174.472778,103.730942 176.404785,103.434525 
	C183.815918,102.297485 194.261368,104.354027 197.721008,112.975693 
	C193.485397,112.548729 189.415237,111.627350 187.692383,115.775848 
	C189.964905,117.575226 191.479919,118.774796 192.600159,120.004730 
	C190.109955,120.384293 188.014496,120.733475 185.923035,121.053589 
	C185.927032,121.024506 185.963074,121.070839 185.843262,120.856750 
	C185.524384,120.372673 185.269730,120.173889 184.618912,119.927666 
	C181.018295,117.674843 176.674881,118.470917 175.228470,121.424835 
	C173.961014,124.013313 172.624130,126.567795 171.035995,128.964539 
	C170.754074,126.371338 170.754074,123.950912 170.754074,121.530479 
	C170.425156,121.304405 170.096237,121.078323 169.767334,120.852249 
	C167.822418,123.601677 165.877518,126.351105 163.928696,129.106079 
	C163.188141,128.426788 162.187836,127.509239 161.182495,126.587074 
	C160.703186,127.104698 160.485870,127.335876 160.272369,127.570511 
	C159.151886,128.801865 158.032379,130.034134 156.912537,131.266068 
	C156.910049,129.566254 156.535065,127.761742 156.977646,126.186996 
	C158.128342,122.092682 159.638123,118.099289 161.004639,114.065628 
	C161.142303,113.742676 161.279984,113.419724 161.979019,112.876282 
	C164.308197,110.558075 166.076019,108.460358 167.843826,106.362648 
z"/>
<path fill="#4B24E6" opacity="1.000000" stroke="none" 
	d="
M253.939484,240.603989 
	C252.486389,243.269211 251.033295,245.934433 249.306808,248.363373 
	C249.443924,246.872604 250.110703,245.634949 250.194595,244.358963 
	C250.282806,243.017517 250.183304,241.359711 249.446075,240.383926 
	C249.015182,239.813614 247.029114,239.962631 246.004807,240.400772 
	C244.381805,241.095016 242.962372,242.279541 241.486038,243.298981 
	C239.350342,244.773697 237.341476,246.462021 235.099350,247.746552 
	C230.212326,250.546387 225.212234,253.148834 220.258347,255.831940 
	C220.353333,256.507446 220.448334,257.182983 220.543335,257.858490 
	C222.913727,258.170593 225.312454,258.874512 227.648071,258.705658 
	C231.427246,258.432404 235.164993,257.585693 238.920227,256.981140 
	C228.789536,262.932159 218.926544,261.380157 208.935974,255.296631 
	C207.762680,253.116562 206.856339,251.560776 206.373596,250.002075 
	C212.106964,250.452438 215.789963,247.616348 219.340820,243.874634 
	C220.110611,243.499573 220.595291,243.186478 221.453491,242.892059 
	C222.562149,243.044174 223.297302,243.177628 224.135345,243.392578 
	C224.238220,243.474091 224.618011,243.511368 224.618011,243.511368 
	C224.618011,243.511368 224.953430,243.322952 225.334595,243.250519 
	C226.489670,243.190277 227.263580,243.202484 228.304321,243.370758 
	C230.057663,242.747055 231.544189,241.967270 233.167603,241.069061 
	C233.304489,240.950668 233.660828,240.886917 233.998291,240.826920 
	C234.787125,240.063675 235.238480,239.360428 235.718964,238.718323 
	C235.748077,238.779465 235.621918,238.828796 235.888184,238.675140 
	C236.417694,237.988983 236.680923,237.456467 236.952866,236.940170 
	C236.961578,236.956390 236.924179,236.932999 237.229248,236.858627 
	C238.339447,235.841202 239.144592,234.898132 240.343353,233.939072 
	C245.574387,232.878220 250.251663,231.475403 254.002182,228.421967 
	C254.255966,231.545853 254.504868,234.238022 254.753769,236.930191 
	C254.677185,237.497604 254.600601,238.065018 254.281815,239.161530 
	C253.952972,239.989548 253.919601,240.293991 253.939484,240.603989 
M217.500137,257.526276 
	C217.500137,257.526276 217.484650,257.485474 217.500137,257.526276 
z"/>
<path fill="#C8148D" opacity="1.000000" stroke="none" 
	d="
M198.105499,112.995872 
	C194.261368,104.354027 183.815918,102.297485 176.404785,103.434525 
	C174.472778,103.730942 172.603546,104.436661 170.413177,104.947601 
	C179.730484,97.971397 193.842636,101.085686 200.196976,111.986732 
	C204.039688,118.579041 207.145660,125.600822 210.489197,133.077484 
	C209.621094,137.580719 207.369080,139.256531 203.395065,138.669357 
	C200.552994,138.249435 200.039871,139.348083 200.916809,142.085876 
	C201.497223,143.897934 200.986893,146.059372 200.572571,148.139679 
	C199.924423,148.290253 199.668564,148.365509 199.221710,148.147766 
	C197.897446,145.699295 196.764175,143.543869 195.699966,141.027710 
	C194.423416,137.913422 193.077805,135.159851 192.066650,132.429871 
	C193.691162,131.137314 194.981201,129.821136 195.407547,129.386154 
	C199.000931,127.933052 201.768753,126.813789 204.536575,125.694534 
	C203.370895,123.120827 202.205215,120.547127 200.889908,117.661331 
	C199.862015,115.898109 198.983749,114.446991 198.105499,112.995872 
z"/>
<path fill="#DD1081" opacity="1.000000" stroke="none" 
	d="
M160.796982,114.320251 
	C159.638123,118.099289 158.128342,122.092682 156.977646,126.186996 
	C156.535065,127.761742 156.910049,129.566254 156.912537,131.266068 
	C158.032379,130.034134 159.151886,128.801865 160.272369,127.570511 
	C160.485870,127.335876 160.703186,127.104698 161.182495,126.587074 
	C162.187836,127.509239 163.188141,128.426788 163.928696,129.106079 
	C165.877518,126.351105 167.822418,123.601677 169.767334,120.852249 
	C170.096237,121.078323 170.425156,121.304405 170.754074,121.530479 
	C170.754074,123.950912 170.754074,126.371338 171.009827,129.331818 
	C170.385620,131.763229 169.259735,133.583221 168.685120,135.563202 
	C167.885971,138.316742 167.499893,141.190186 166.629990,144.143829 
	C164.201309,143.112167 162.079651,141.948975 160.139816,140.885468 
	C159.063019,142.297989 158.026108,143.658188 156.675125,145.145935 
	C156.337906,147.045410 156.219131,148.822723 156.317963,150.587830 
	C156.421066,152.428833 156.733887,154.258087 156.614685,156.060577 
	C155.819550,156.032501 155.364746,156.036301 154.795715,155.939819 
	C154.681473,155.839554 154.645721,155.537689 154.697662,155.210220 
	C154.268616,154.230865 153.787643,153.578995 153.099869,152.661377 
	C152.409286,151.154861 151.925491,149.914093 151.527832,148.225876 
	C151.218918,145.995163 150.823853,144.211899 150.306824,142.241364 
	C150.233459,141.621933 150.282089,141.189804 150.512604,140.260803 
	C150.708511,138.042435 150.722519,136.320953 150.736526,134.599457 
	C150.903397,134.405533 151.070251,134.211624 151.555878,133.828308 
	C151.874649,133.638885 151.894516,133.639130 151.894516,133.639130 
	C154.792786,127.284378 157.691055,120.929626 160.796982,114.320251 
z"/>
<path fill="#851DBA" opacity="1.000000" stroke="none" 
	d="
M183.085358,212.985489 
	C182.630432,212.293427 182.175522,211.601379 181.479568,210.307297 
	C180.770355,208.850052 180.305847,207.992813 179.833389,207.139954 
	C177.203918,202.393341 174.572510,197.647797 171.645569,192.601044 
	C171.152191,192.101715 170.955017,191.903259 170.811569,191.398422 
	C170.988052,190.696014 171.110809,190.299957 171.522949,189.987320 
	C172.544434,190.392029 173.276520,190.713318 174.207001,191.315369 
	C175.338364,193.635605 176.271332,195.675079 177.282303,197.885086 
	C180.032852,195.336624 182.008743,193.505890 184.151794,191.520309 
	C183.821396,190.485962 183.432297,189.267868 183.364044,188.056793 
	C184.112625,188.074295 184.540390,188.084793 185.104706,188.374725 
	C185.791092,189.544739 186.340927,190.435349 186.890778,191.325974 
	C187.185410,191.218613 187.480057,191.111267 187.774689,191.003922 
	C187.547546,190.008377 187.320404,189.012848 187.020020,187.678162 
	C185.991608,185.555481 185.036438,183.771942 184.115417,181.709106 
	C184.421768,180.952652 184.693985,180.475494 185.247467,180.193024 
	C187.328613,183.161743 189.128525,185.935760 190.943848,189.097534 
	C192.943390,193.993256 194.927521,198.501266 196.716309,203.277908 
	C194.046234,206.772675 191.571487,209.998795 188.946640,213.420593 
	C187.687134,212.229721 186.336670,210.952835 184.844589,209.542053 
	C184.124298,210.951920 183.604828,211.968704 183.085358,212.985489 
z"/>
<path fill="#6F21C8" opacity="1.000000" stroke="none" 
	d="
M195.117798,236.963242 
	C193.504684,233.973495 191.891571,230.983749 190.184631,227.266830 
	C189.611588,224.979813 188.682251,223.394943 188.767303,221.866486 
	C188.873138,219.964523 189.370682,216.856110 190.479370,216.461609 
	C194.257889,215.117081 198.379150,214.735825 202.399216,214.070724 
	C202.428833,214.154541 202.280426,214.253586 202.273224,214.643707 
	C202.984390,215.983932 203.702759,216.934036 204.656784,218.132935 
	C206.316269,221.501282 207.740097,224.620819 208.965149,228.056030 
	C207.270416,229.259201 205.750778,230.109482 204.283386,231.041977 
	C201.213623,232.992767 198.171356,234.986893 195.117798,236.963242 
z"/>
<path fill="#A01AA7" opacity="1.000000" stroke="none" 
	d="
M216.613510,145.948517 
	C220.270309,152.770157 223.927109,159.591797 227.322098,166.903687 
	C221.464920,168.027451 216.938034,173.309937 210.425995,170.944214 
	C208.669586,167.685059 207.188675,164.635406 205.587845,161.316010 
	C204.445602,158.815674 203.423294,156.585083 202.717300,154.405182 
	C203.691589,154.971558 204.349594,155.487244 205.179260,156.295853 
	C206.246689,157.940567 207.142441,159.292358 207.920670,160.466812 
	C212.047607,158.687408 215.867401,157.040436 220.392944,155.089172 
	C218.912628,152.682755 217.474625,150.345139 216.053619,147.791016 
	C216.251602,147.032516 216.432556,146.490524 216.613510,145.948517 
z"/>
<path fill="#0D99EF" opacity="1.000000" stroke="none" 
	d="
M116.547897,203.026733 
	C119.538673,196.900589 122.529449,190.774445 125.936096,184.384125 
	C126.571205,184.120682 126.790253,184.114502 127.004059,184.484436 
	C126.296158,187.296860 125.593292,189.726227 124.907944,192.095047 
	C126.279198,192.666504 128.355728,192.861938 128.939926,193.898468 
	C130.841263,197.272003 133.731430,198.148499 137.202911,198.633972 
	C135.296066,202.885101 133.367401,206.770004 131.242706,210.344391 
	C129.704712,207.927628 128.418350,206.905441 125.915123,208.963715 
	C122.911797,211.433197 120.418594,210.157623 119.303970,206.382309 
	C118.926559,205.103973 117.496765,204.136353 116.547897,203.026733 
z"/>
<path fill="#4223EB" opacity="1.000000" stroke="none" 
	d="
M239.243408,256.991028 
	C235.164993,257.585693 231.427246,258.432404 227.648071,258.705658 
	C225.312454,258.874512 222.913727,258.170593 220.543335,257.858490 
	C220.448334,257.182983 220.353333,256.507446 220.258347,255.831940 
	C225.212234,253.148834 230.212326,250.546387 235.099350,247.746552 
	C237.341476,246.462021 239.350342,244.773697 241.486038,243.298981 
	C242.962372,242.279541 244.381805,241.095016 246.004807,240.400772 
	C247.029114,239.962631 249.015182,239.813614 249.446075,240.383926 
	C250.183304,241.359711 250.282806,243.017517 250.194595,244.358963 
	C250.110703,245.634949 249.443924,246.872604 249.002197,248.491089 
	C248.970963,248.855072 248.979706,248.957016 248.608368,249.044357 
	C246.912308,250.568008 245.587601,252.004318 244.262878,253.440643 
	C244.262894,253.440643 244.151932,253.270676 243.990753,253.344971 
	C243.575317,253.683914 243.321060,253.948563 243.066788,254.213211 
	C243.066788,254.213211 243.127777,254.115891 242.864059,254.184448 
	C242.066849,254.820679 241.533371,255.388321 240.999878,255.955978 
	C240.522110,256.304291 240.044342,256.652588 239.243408,256.991028 
z"/>
<path fill="#1A50E6" opacity="1.000000" stroke="none" 
	d="
M151.441711,148.673325 
	C151.925491,149.914093 152.409286,151.154861 153.044220,152.978180 
	C153.678802,154.219711 154.162262,154.878693 154.645721,155.537689 
	C154.645721,155.537689 154.681473,155.839554 154.778137,156.288727 
	C155.349976,158.241165 155.825134,159.744431 156.187256,161.589767 
	C155.499619,162.656662 154.925034,163.381500 153.937790,164.088104 
	C146.894974,166.186020 143.209930,161.303864 138.896957,157.913834 
	C141.994705,151.804031 145.092468,145.694229 148.601135,139.561371 
	C149.451599,139.944748 149.891159,140.351212 150.330719,140.757660 
	C150.282089,141.189804 150.233459,141.621933 150.102127,142.568863 
	C150.493515,144.946869 150.967606,146.810104 151.441711,148.673325 
z"/>
<path fill="#0D99EF" opacity="1.000000" stroke="none" 
	d="
M175.801559,219.645447 
	C172.853592,225.549881 169.905640,231.454315 166.652374,237.167206 
	C167.038757,230.925186 166.946533,230.829468 161.406662,232.078705 
	C159.603592,229.703812 157.750519,227.263046 155.983078,224.482559 
	C156.974396,221.347549 157.880081,218.552261 158.809647,215.827759 
	C158.833511,215.898529 158.690155,215.940536 158.919220,215.718979 
	C159.384293,214.916870 159.620316,214.336319 159.836182,213.800171 
	C159.816025,213.844589 159.730011,213.798553 160.029572,213.852783 
	C160.529678,213.934067 160.730209,213.961105 161.266068,214.095276 
	C163.736771,215.401901 165.852097,216.639008 168.012589,217.791428 
	C170.804138,219.280457 173.488525,219.283859 175.916046,217.333771 
	C175.872894,218.326065 175.837219,218.985748 175.801559,219.645447 
z"/>
<path fill="#1373E7" opacity="1.000000" stroke="none" 
	d="
M127.009102,184.101379 
	C126.790253,184.114502 126.571205,184.120682 126.189873,184.094086 
	C129.555435,176.887589 133.083084,169.706955 136.979858,162.573883 
	C137.245667,163.935181 137.133377,165.248306 137.040573,166.562775 
	C136.626785,172.423965 137.719025,173.761215 143.348816,172.741013 
	C146.388718,172.190109 149.199814,170.376541 152.013397,169.465698 
	C150.318222,173.213684 148.889038,176.719116 147.082260,180.017746 
	C145.321762,183.231873 143.174973,186.234421 141.154480,188.939728 
	C138.564163,184.643219 136.017136,180.736847 132.773651,175.762329 
	C130.291641,179.352844 128.650375,181.727112 127.009102,184.101379 
z"/>
<path fill="#851DBA" opacity="1.000000" stroke="none" 
	d="
M230.906982,173.605240 
	C234.082306,179.838455 237.257614,186.071686 240.244339,192.515289 
	C238.837204,191.412170 237.618668,190.098663 236.196625,188.565781 
	C232.404831,190.391571 228.641235,192.203751 224.509186,194.193359 
	C224.625458,195.651596 224.765961,197.413712 224.647766,198.944763 
	C222.208786,194.252533 220.028503,189.791351 217.990784,184.983612 
	C220.905273,182.679626 223.677200,180.722183 226.512924,178.719711 
	C227.005539,179.027695 228.135971,179.734421 229.266403,180.441162 
	C229.837921,179.160400 230.563431,177.921631 230.927948,176.584442 
	C231.179459,175.661850 230.931641,174.603119 230.906982,173.605240 
z"/>
<path fill="#06BAF6" opacity="1.000000" stroke="none" 
	d="
M156.565491,251.975983 
	C149.651047,253.904907 145.131271,248.914520 139.278732,246.408615 
	C141.001022,244.876984 142.821274,243.258224 144.721375,241.291748 
	C144.801224,240.944046 144.855957,240.933929 145.204132,240.898285 
	C147.342316,238.893921 149.132339,236.925201 151.295868,234.992218 
	C152.748505,235.691086 153.955185,236.212799 154.880142,237.046906 
	C156.784485,238.764175 158.538300,240.648376 161.203232,243.312943 
	C161.181427,243.773972 161.089035,245.727539 160.996658,247.681091 
	C159.622360,249.080887 158.248047,250.480698 156.565491,251.975983 
z"/>
<path fill="#941BB1" opacity="1.000000" stroke="none" 
	d="
M230.842941,173.227859 
	C230.931641,174.603119 231.179459,175.661850 230.927948,176.584442 
	C230.563431,177.921631 229.837921,179.160400 229.266403,180.441162 
	C228.135971,179.734421 227.005539,179.027695 226.512924,178.719711 
	C223.677200,180.722183 220.905273,182.679626 217.719940,184.751465 
	C215.104858,180.295166 212.903168,175.724442 210.701492,171.153717 
	C216.938034,173.309937 221.464920,168.027451 227.379486,167.252106 
	C228.725418,169.023697 229.752151,170.937088 230.842941,173.227859 
z"/>
<path fill="#BB1598" opacity="1.000000" stroke="none" 
	d="
M216.545242,145.546143 
	C216.432556,146.490524 216.251602,147.032516 215.645065,147.790375 
	C210.663269,148.483566 206.118866,148.957855 206.193039,155.253159 
	C206.195923,155.498383 205.420395,155.752792 205.007584,156.002914 
	C204.349594,155.487244 203.691589,154.971558 202.599777,154.222610 
	C202.026337,153.732056 201.935730,153.458557 201.825470,152.953339 
	C201.622910,152.460922 201.430740,152.233124 201.075699,151.836151 
	C200.971100,151.617813 200.869949,151.144287 200.911469,150.760040 
	C200.956955,149.605331 200.960907,148.834869 200.964874,148.064392 
	C200.986893,146.059372 201.497223,143.897934 200.916809,142.085876 
	C200.039871,139.348083 200.552994,138.249435 203.395065,138.669357 
	C207.369080,139.256531 209.621094,137.580719 210.560699,133.432480 
	C212.642761,137.140991 214.559875,141.142365 216.545242,145.546143 
z"/>
<path fill="#6F21C8" opacity="1.000000" stroke="none" 
	d="
M241.153458,194.750900 
	C243.453445,199.183868 245.753418,203.616837 247.773315,208.371643 
	C246.287689,207.657486 245.082153,206.621475 244.027252,205.714905 
	C242.025604,206.880508 240.301315,208.657669 238.442413,208.811844 
	C234.095352,209.172394 232.666870,211.379608 232.594330,215.074860 
	C230.151245,210.313507 227.979065,205.788239 226.226776,201.211578 
	C229.488205,200.297729 232.801575,198.070496 235.073425,198.855911 
	C239.854691,200.508881 240.501068,198.124863 241.153458,194.750900 
z"/>
<path fill="#5F23D2" opacity="1.000000" stroke="none" 
	d="
M195.163589,237.320526 
	C198.171356,234.986893 201.213623,232.992767 204.283386,231.041977 
	C205.750778,230.109482 207.270416,229.259201 209.226898,228.286194 
	C211.011353,230.949646 212.335312,233.698563 213.317627,236.613647 
	C212.014114,237.839661 211.052261,238.899536 210.034531,240.020950 
	C209.316940,239.625809 208.528198,239.191467 207.755402,238.765900 
	C206.820450,240.157028 206.014633,241.356018 205.171295,242.610809 
	C203.413406,242.121445 201.828690,241.680283 200.243973,241.239120 
	C199.849777,241.718765 199.455566,242.198425 199.061371,242.678070 
	C201.357590,245.120361 203.653809,247.562668 205.950012,250.004974 
	C206.856339,251.560776 207.762680,253.116562 208.792969,254.993195 
	C201.416229,251.713776 198.414658,244.616623 195.163589,237.320526 
z"/>
<path fill="#33C4DB" opacity="1.000000" stroke="none" 
	d="
M108.132851,225.047348 
	C106.453461,238.047012 111.362770,247.916946 122.267502,254.997818 
	C129.809677,259.895203 137.859482,259.598541 146.108826,257.500977 
	C147.550751,257.134338 148.958450,256.633087 150.770538,256.128998 
	C144.088303,262.194672 130.024948,262.196960 120.406273,256.068970 
	C105.291237,246.439285 102.031517,228.212143 112.634666,211.180328 
	C111.924652,214.524292 110.925888,217.686340 109.711235,221.103516 
	C109.041176,222.588226 108.587013,223.817795 108.132851,225.047348 
z"/>
<path fill="#5723CD" opacity="1.000000" stroke="none" 
	d="
M239.949738,233.955063 
	C239.144592,234.898132 238.339447,235.841202 237.296936,236.453842 
	C236.958740,231.778900 236.857941,227.434387 236.954346,222.845154 
	C237.151566,220.884018 237.151566,219.167603 237.151566,218.297440 
	C241.202148,216.903107 244.625946,215.596054 248.137939,214.599945 
	C249.094803,214.328552 250.317184,214.993301 251.417709,215.228394 
	C256.030762,221.622742 256.631195,228.718475 254.917725,236.560104 
	C254.504868,234.238022 254.255966,231.545853 253.980057,228.045044 
	C253.509644,225.642410 253.385040,223.835037 252.511108,222.529160 
	C251.925583,221.654297 250.014389,220.792984 249.144943,221.119614 
	C242.009216,223.800293 240.061127,226.685562 239.949738,233.955063 
z"/>
<path fill="#0CB2F1" opacity="1.000000" stroke="none" 
	d="
M109.927124,220.848373 
	C110.925888,217.686340 111.924652,214.524292 112.901123,210.955688 
	C113.786674,208.519760 114.694527,206.490387 116.019348,204.510162 
	C116.490227,205.200821 116.729614,205.893097 116.570152,206.476288 
	C114.266235,214.902481 118.794922,219.929062 127.279816,218.654205 
	C126.124405,221.695465 124.947739,224.373779 123.449821,226.976074 
	C117.352249,227.884171 112.902428,225.974564 109.927124,220.848373 
z"/>
<path fill="#09A9F2" opacity="1.000000" stroke="none" 
	d="
M161.274750,247.522675 
	C161.089035,245.727539 161.181427,243.773972 161.203232,243.312943 
	C158.538300,240.648376 156.784485,238.764175 154.880142,237.046906 
	C153.955185,236.212799 152.748505,235.691086 151.435654,234.659027 
	C152.138901,231.187866 153.075836,228.085632 154.013763,224.999542 
	C154.014755,225.015686 153.982712,225.011261 154.304230,225.002304 
	C155.049637,224.936325 155.473541,224.879303 155.897446,224.822281 
	C157.750519,227.263046 159.603592,229.703812 161.406662,232.078705 
	C166.946533,230.829468 167.038757,230.925186 166.376785,237.398270 
	C166.406479,237.820877 166.387497,237.842575 166.123734,238.083740 
	C165.585312,239.158127 165.310638,239.991348 165.035980,240.824585 
	C163.874939,243.004471 162.713898,245.184357 161.274750,247.522675 
z"/>
<path fill="#0F65EE" opacity="1.000000" stroke="none" 
	d="
M152.114136,169.132629 
	C149.199814,170.376541 146.388718,172.190109 143.348816,172.741013 
	C137.719025,173.761215 136.626785,172.423965 137.040573,166.562775 
	C137.133377,165.248306 137.245667,163.935181 137.188538,162.314484 
	C137.458984,160.758148 137.889908,159.508774 138.608887,158.086609 
	C143.209930,161.303864 146.894974,166.186020 153.892410,164.419830 
	C153.879333,165.533783 153.498993,166.297791 152.905441,167.264282 
	C152.484024,168.008636 152.275818,168.550507 152.088440,169.091629 
	C152.109268,169.090881 152.114136,169.132645 152.114136,169.132629 
z"/>
<path fill="#7B1EBA" opacity="1.000000" stroke="none" 
	d="
M202.369598,213.986908 
	C198.379150,214.735825 194.257889,215.117081 190.479370,216.461609 
	C189.370682,216.856110 188.873138,219.964523 188.767303,221.866486 
	C188.682251,223.394943 189.611588,224.979813 190.132843,226.883087 
	C187.849228,222.718307 185.523575,218.210129 183.141632,213.343719 
	C183.604828,211.968704 184.124298,210.951920 184.844589,209.542053 
	C186.336670,210.952835 187.687134,212.229721 188.946640,213.420593 
	C191.571487,209.998795 194.046234,206.772675 196.966461,203.514648 
	C199.064484,206.984161 200.717041,210.485535 202.369598,213.986908 
z"/>
<path fill="#5F23D2" opacity="1.000000" stroke="none" 
	d="
M251.354980,214.851425 
	C250.317184,214.993301 249.094803,214.328552 248.137939,214.599945 
	C244.625946,215.596054 241.202148,216.903107 237.151566,218.297440 
	C237.151566,219.167603 237.151566,220.884018 236.715881,222.609955 
	C235.141891,220.183304 234.003555,217.747116 232.865219,215.310944 
	C232.666870,211.379608 234.095352,209.172394 238.442413,208.811844 
	C240.301315,208.657669 242.025604,206.880508 244.027252,205.714905 
	C245.082153,206.621475 246.287689,207.657486 247.818939,208.739120 
	C248.144638,208.784744 248.139175,208.814499 248.161713,209.159088 
	C248.981216,210.698547 249.778198,211.893433 250.575165,213.088303 
	C250.575165,213.088303 250.834167,213.363739 250.865463,213.568817 
	C250.896759,213.773911 250.915833,213.809250 250.915833,213.809250 
	C251.041321,214.030991 251.166794,214.252731 251.354980,214.851425 
z"/>
<path fill="#7C1DC7" opacity="1.000000" stroke="none" 
	d="
M241.143723,194.432465 
	C240.501068,198.124863 239.854691,200.508881 235.073425,198.855911 
	C232.801575,198.070496 229.488205,200.297729 226.237305,201.176376 
	C225.827942,201.192566 225.898270,201.213013 225.800568,200.995117 
	C225.546844,200.497437 225.350632,200.249451 225.015991,199.830139 
	C224.917770,199.626984 224.906464,199.175827 224.906464,199.175827 
	C224.765961,197.413712 224.625458,195.651596 224.509186,194.193359 
	C228.641235,192.203751 232.404831,190.391571 236.196625,188.565781 
	C237.618668,190.098663 238.837204,191.412170 240.337769,192.847885 
	C240.791199,193.351395 240.962601,193.732712 241.143723,194.432465 
z"/>
<path fill="#09A9F2" opacity="1.000000" stroke="none" 
	d="
M127.258560,218.291275 
	C118.794922,219.929062 114.266235,214.902481 116.570152,206.476288 
	C116.729614,205.893097 116.490227,205.200821 116.260681,204.277237 
	C116.110100,203.808823 116.135170,203.622452 116.354073,203.231400 
	C117.496765,204.136353 118.926559,205.103973 119.303970,206.382309 
	C120.418594,210.157623 122.911797,211.433197 125.915123,208.963715 
	C128.418350,206.905441 129.704712,207.927628 131.221069,210.435059 
	C131.395462,210.836258 131.211014,210.822327 131.026764,211.055496 
	C130.647354,211.631012 130.452209,211.973358 130.355865,212.243896 
	C130.454651,212.172058 130.595901,212.371368 130.292480,212.517517 
	C129.688919,213.468857 129.388779,214.274063 129.103638,215.078094 
	C129.118622,215.076920 129.118759,215.107117 128.791809,215.206879 
	C128.069504,216.277832 127.674126,217.249039 127.282913,218.240448 
	C127.287086,218.260666 127.258560,218.291275 127.258560,218.291275 
z"/>
<path fill="#154EA4" opacity="1.000000" stroke="none" 
	d="
M176.055206,219.433533 
	C175.837219,218.985748 175.872894,218.326065 175.949066,216.933136 
	C175.560928,213.805496 175.132294,211.411087 174.730133,208.628204 
	C174.136841,205.499405 173.517059,202.759048 172.897461,199.654968 
	C172.562881,197.888748 172.228104,196.486267 171.924591,194.808884 
	C171.951187,193.989944 171.946487,193.445908 171.941772,192.901886 
	C174.572510,197.647797 177.203918,202.393341 179.833389,207.139954 
	C180.305847,207.992813 180.770355,208.850052 181.324890,209.917725 
	C179.710449,213.160660 178.009644,216.191132 176.055206,219.433533 
z"/>
<path fill="#C8148D" opacity="1.000000" stroke="none" 
	d="
M167.537872,106.386879 
	C166.076019,108.460358 164.308197,110.558075 162.233948,112.757751 
	C163.695648,110.710175 165.463791,108.560646 167.537872,106.386879 
z"/>
<path fill="#B11A97" opacity="1.000000" stroke="none" 
	d="
M150.512604,140.260803 
	C149.891159,140.351212 149.451599,139.944748 148.883301,139.250916 
	C149.260040,137.633545 149.765488,136.303543 150.503738,134.786499 
	C150.722519,136.320953 150.708511,138.042435 150.512604,140.260803 
z"/>
<path fill="#4B24E6" opacity="1.000000" stroke="none" 
	d="
M244.594498,253.377380 
	C245.587601,252.004318 246.912308,250.568008 248.557404,249.048859 
	C247.560562,250.415405 246.243347,251.864761 244.594498,253.377380 
z"/>
<path fill="#6F21C8" opacity="1.000000" stroke="none" 
	d="
M250.542496,212.769241 
	C249.778198,211.893433 248.981216,210.698547 248.160233,209.173248 
	C248.927414,210.045258 249.718613,211.247726 250.542496,212.769241 
z"/>
<path fill="#4B24E6" opacity="1.000000" stroke="none" 
	d="
M241.278702,255.858002 
	C241.533371,255.388321 242.066849,254.820679 242.911560,254.216736 
	C242.667679,254.706985 242.112595,255.233505 241.278702,255.858002 
z"/>
<path fill="#33C4DB" opacity="1.000000" stroke="none" 
	d="
M151.199921,256.160034 
	C151.355148,255.831543 151.683304,255.469681 152.237427,255.030060 
	C152.099869,255.343735 151.736359,255.735168 151.199921,256.160034 
z"/>
<path fill="#0D99EF" opacity="1.000000" stroke="none" 
	d="
M165.284637,240.604553 
	C165.310638,239.991348 165.585312,239.158127 166.108505,238.084641 
	C166.082458,238.691101 165.807877,239.537796 165.284637,240.604553 
z"/>
<path fill="#5723CD" opacity="1.000000" stroke="none" 
	d="
M254.071808,240.492004 
	C253.919601,240.293991 253.952972,239.989548 254.094238,239.550598 
	C254.203964,239.624802 254.278412,239.836624 254.305634,240.054352 
	C254.318481,240.157074 254.240799,240.271118 254.071808,240.492004 
z"/>
<path fill="#B11A97" opacity="1.000000" stroke="none" 
	d="
M151.873932,133.588547 
	C151.894516,133.639130 151.874649,133.638885 151.885178,133.631317 
	C151.895706,133.623764 151.853348,133.537964 151.873932,133.588547 
z"/>
<path fill="#4B24E6" opacity="1.000000" stroke="none" 
	d="
M243.377319,254.187439 
	C243.321060,253.948563 243.575317,253.683914 244.077454,253.292206 
	C244.112839,253.497330 243.900345,253.829498 243.377319,254.187439 
z"/>
<path fill="#5723CD" opacity="1.000000" stroke="none" 
	d="
M250.995132,213.825867 
	C250.915833,213.809250 250.896759,213.773911 250.888351,213.756470 
	C250.879944,213.739044 251.074432,213.842468 250.995132,213.825867 
z"/>
<path fill="#070521" opacity="1.000000" stroke="none" 
	d="
M131.211014,210.822327 
	C131.211014,210.822327 131.395462,210.836258 131.417099,210.745575 
	C133.367401,206.770004 135.296066,202.885101 137.188171,198.626648 
	C137.151627,198.253082 137.169220,198.232407 137.480621,198.093811 
	C137.962784,197.320053 138.133575,196.684921 138.235718,196.075729 
	C138.167099,196.101685 138.224518,196.236710 138.537674,196.055435 
	C139.025085,194.943771 139.199326,194.013382 139.657578,192.941071 
	C140.360306,191.642715 140.779037,190.486282 141.197754,189.329849 
	C143.174973,186.234421 145.321762,183.231873 147.082260,180.017746 
	C148.889038,176.719116 150.318222,173.213684 152.013397,169.465698 
	C152.114136,169.132645 152.109268,169.090881 152.360489,168.945282 
	C152.780685,168.220398 152.949677,167.641083 153.118652,167.061783 
	C153.498993,166.297791 153.879333,165.533783 154.305054,164.438049 
	C154.925034,163.381500 155.499619,162.656662 156.473343,161.832703 
	C161.529633,170.547165 166.186783,179.360733 170.869095,188.472198 
	C171.007370,189.148041 171.120468,189.525986 171.233566,189.903915 
	C171.110809,190.299957 170.988052,190.696014 170.574615,191.655289 
	C167.546082,197.792206 164.808243,203.365875 161.793304,209.152298 
	C161.342545,210.031830 161.168869,210.698624 160.777740,211.552261 
	C160.283539,212.425598 160.006775,213.112076 159.730011,213.798553 
	C159.730011,213.798553 159.816025,213.844589 159.563690,213.980896 
	C159.104294,214.724976 158.897232,215.332748 158.690155,215.940536 
	C158.690155,215.940536 158.833511,215.898529 158.556885,216.057831 
	C156.847748,219.148499 155.415237,222.079880 153.982727,225.011261 
	C153.982712,225.011261 154.014755,225.015686 153.699371,225.160019 
	C150.541321,230.514206 147.698639,235.724075 144.855957,240.933929 
	C144.855957,240.933929 144.801224,240.944046 144.784607,240.967438 
	C139.519897,243.455551 134.272369,244.322525 128.539001,240.568024 
	C126.631767,238.080292 125.211815,236.009888 123.823242,233.731171 
	C123.854630,233.522858 123.620758,233.172409 123.652649,232.734009 
	C123.713379,230.547791 123.742226,228.799942 123.771072,227.052109 
	C124.947739,224.373779 126.124405,221.695465 127.279816,218.654205 
	C127.258560,218.291275 127.287086,218.260666 127.586296,218.126862 
	C128.296585,217.031082 128.707672,216.069092 129.118759,215.107117 
	C129.118759,215.107117 129.118622,215.076920 129.371918,214.898651 
	C129.948792,213.937378 130.272354,213.154373 130.595901,212.371368 
	C130.595901,212.371368 130.454651,212.172058 130.674835,212.129608 
	C131.000351,211.665558 131.105682,211.243942 131.211014,210.822327 
z"/>
<path fill="#06BAF6" opacity="1.000000" stroke="none" 
	d="
M123.449829,226.976074 
	C123.742226,228.799942 123.713379,230.547791 123.584213,232.828018 
	C123.451546,233.621246 123.554199,233.814270 123.791855,233.939484 
	C125.211815,236.009888 126.631767,238.080292 128.181076,240.459076 
	C126.669342,240.114502 125.028244,239.461578 123.047829,238.673660 
	C120.684616,241.701050 119.189224,240.968643 117.414406,237.401855 
	C116.325592,235.213699 113.622787,233.828644 111.644760,232.082962 
	C111.348778,232.390869 111.052795,232.698776 110.756821,233.006699 
	C110.033653,230.537415 109.310493,228.068130 108.360092,225.323090 
	C108.587013,223.817795 109.041176,222.588226 109.711235,221.103516 
	C112.902428,225.974564 117.352249,227.884171 123.449829,226.976074 
z"/>
<path fill="#100322" opacity="1.000000" stroke="none" 
	d="
M166.937012,144.012299 
	C167.499893,141.190186 167.885971,138.316742 168.685120,135.563202 
	C169.259735,133.583221 170.385620,131.763229 171.291748,129.504578 
	C172.624130,126.567795 173.961014,124.013313 175.228470,121.424835 
	C176.674881,118.470917 181.018295,117.674843 184.681091,120.184883 
	C185.376938,120.730774 185.669998,120.900810 185.963074,121.070839 
	C185.963074,121.070839 185.927032,121.024506 185.940353,121.409981 
	C187.476822,124.905029 188.999969,128.014603 190.655991,131.413086 
	C191.127563,131.917862 191.466263,132.133759 191.782562,132.358414 
	C191.760147,132.367188 191.732208,132.406265 191.732208,132.406265 
	C193.077805,135.159851 194.423416,137.913422 195.525879,141.263641 
	C194.431320,143.805466 193.579926,145.750656 192.483521,147.935120 
	C191.759888,149.434143 191.281265,150.693878 190.513901,152.115112 
	C189.780746,153.499832 189.336319,154.723022 188.919312,155.955200 
	C188.946716,155.964172 188.922089,155.911606 188.610703,156.079865 
	C185.796402,161.007309 183.293488,165.766495 180.587494,170.367249 
	C179.973740,169.477142 179.563034,168.745468 179.171661,167.637436 
	C176.684647,162.062561 174.287933,156.806976 171.623444,151.690826 
	C170.382004,149.307083 168.621445,147.193665 167.083740,144.716187 
	C167.071304,144.474640 166.937012,144.012299 166.937012,144.012299 
z"/>
<path fill="#D51487" opacity="1.000000" stroke="none" 
	d="
M190.523132,131.124176 
	C188.999969,128.014603 187.476822,124.905029 185.936356,121.439056 
	C188.014496,120.733475 190.109955,120.384293 192.636795,120.346619 
	C194.209427,120.937782 195.607086,121.768394 196.438171,121.381607 
	C198.133484,120.592628 199.523666,119.147972 201.039536,117.973427 
	C202.205215,120.547127 203.370895,123.120827 204.536575,125.694534 
	C201.768753,126.813789 199.000931,127.933052 195.407547,129.386154 
	C194.981201,129.821136 193.691162,131.137314 192.066666,132.429871 
	C191.732208,132.406265 191.760147,132.367188 191.615509,132.107147 
	C191.154953,131.606140 190.839035,131.365158 190.523132,131.124176 
z"/>
<path fill="#DD1081" opacity="1.000000" stroke="none" 
	d="
M200.889908,117.661331 
	C199.523666,119.147972 198.133484,120.592628 196.438171,121.381607 
	C195.607086,121.768394 194.209427,120.937782 193.031555,120.316246 
	C191.479919,118.774796 189.964905,117.575226 187.692383,115.775848 
	C189.415237,111.627350 193.485397,112.548729 197.721008,112.975693 
	C198.983749,114.446991 199.862015,115.898109 200.889908,117.661331 
z"/>
<path fill="#D51487" opacity="1.000000" stroke="none" 
	d="
M185.843262,120.856750 
	C185.669998,120.900810 185.376938,120.730774 185.021698,120.303528 
	C185.269730,120.173889 185.524384,120.372673 185.843262,120.856750 
z"/>
<path fill="#090222" opacity="1.000000" stroke="none" 
	d="
M224.647766,198.944763 
	C224.906464,199.175827 224.917770,199.626984 225.029144,200.090469 
	C225.393097,200.773636 225.645676,200.993332 225.898270,201.213013 
	C225.898270,201.213013 225.827942,201.192566 225.817413,201.227783 
	C227.979065,205.788239 230.151245,210.313507 232.594330,215.074860 
	C234.003555,217.747116 235.141891,220.183304 236.518677,222.854675 
	C236.857941,227.434387 236.958740,231.778900 236.991867,236.528214 
	C236.924179,236.932999 236.961578,236.956390 236.688568,237.091873 
	C236.151016,237.761169 235.886475,238.294983 235.621918,238.828796 
	C235.621918,238.828796 235.748077,238.779465 235.433472,238.843109 
	C234.632858,239.566818 234.146835,240.226868 233.660828,240.886917 
	C233.660828,240.886917 233.304489,240.950668 232.829315,241.099701 
	C230.915268,241.904068 229.476379,242.559372 228.037506,243.214691 
	C227.263580,243.202484 226.489670,243.190277 225.105255,243.184479 
	C224.494781,243.190903 224.032471,243.311066 224.032471,243.311066 
	C223.297302,243.177628 222.562149,243.044174 221.264603,242.666931 
	C220.159805,242.227539 219.617371,242.031952 218.898468,241.622528 
	C218.198029,241.248260 217.674072,241.087830 217.032913,240.648911 
	C216.330948,239.838409 215.746170,239.306412 215.165039,238.812805 
	C215.168701,238.851181 215.244522,238.837143 215.186676,238.547913 
	C214.625549,237.684830 214.122253,237.110962 213.639923,236.519592 
	C213.660858,236.502075 213.659256,236.447495 213.659256,236.447495 
	C212.335312,233.698563 211.011353,230.949646 209.425659,227.970535 
	C207.740097,224.620819 206.316269,221.501282 204.576111,217.782227 
	C203.600006,216.206329 202.940216,215.229950 202.280426,214.253586 
	C202.280426,214.253586 202.428833,214.154541 202.399216,214.070724 
	C200.717041,210.485535 199.064484,206.984161 197.161804,203.246033 
	C194.927521,198.501266 192.943390,193.993256 191.172882,188.867874 
	C194.601700,181.827148 197.816895,175.403793 201.285873,168.753326 
	C202.929031,166.212738 204.318405,163.899246 205.707779,161.585770 
	C207.188675,164.635406 208.669586,167.685059 210.425995,170.944214 
	C212.903168,175.724442 215.104858,180.295166 217.577377,185.098022 
	C220.028503,189.791351 222.208786,194.252533 224.647766,198.944763 
z"/>
<path fill="#5621DF" opacity="1.000000" stroke="none" 
	d="
M217.150101,240.927399 
	C217.674072,241.087830 218.198029,241.248260 218.881149,241.972748 
	C219.045441,243.003387 219.050568,243.469986 219.055710,243.936584 
	C215.789963,247.616348 212.106964,250.452438 206.373596,250.002075 
	C203.653809,247.562668 201.357590,245.120361 199.061371,242.678070 
	C199.455566,242.198425 199.849777,241.718765 200.243973,241.239120 
	C201.828690,241.680283 203.413406,242.121445 205.171295,242.610809 
	C206.014633,241.356018 206.820450,240.157028 207.755402,238.765900 
	C208.528198,239.191467 209.316940,239.625809 210.034531,240.020950 
	C211.052261,238.899536 212.014114,237.839661 213.317627,236.613647 
	C213.659256,236.447495 213.660858,236.502075 213.574432,236.854065 
	C214.073502,237.749771 214.659012,238.293457 215.244522,238.837143 
	C215.244522,238.837143 215.168701,238.851181 215.216705,239.135132 
	C215.893188,239.921844 216.521652,240.424622 217.150101,240.927399 
z"/>
<path fill="#5621DF" opacity="1.000000" stroke="none" 
	d="
M240.343353,233.939072 
	C240.061127,226.685562 242.009216,223.800293 249.144943,221.119614 
	C250.014389,220.792984 251.925583,221.654297 252.511108,222.529160 
	C253.385040,223.835037 253.509644,225.642410 253.975159,227.613342 
	C250.251663,231.475403 245.574387,232.878220 240.343353,233.939072 
z"/>
<path fill="#5723CD" opacity="1.000000" stroke="none" 
	d="
M228.304321,243.370758 
	C229.476379,242.559372 230.915268,241.904068 232.692444,241.218109 
	C231.544189,241.967270 230.057663,242.747055 228.304321,243.370758 
z"/>
<path fill="#5723CD" opacity="1.000000" stroke="none" 
	d="
M219.340820,243.874634 
	C219.050568,243.469986 219.045441,243.003387 219.057617,242.186584 
	C219.617371,242.031952 220.159805,242.227539 220.891113,242.648254 
	C220.595291,243.186478 220.110611,243.499573 219.340820,243.874634 
z"/>
<path fill="#5723CD" opacity="1.000000" stroke="none" 
	d="
M233.998291,240.826920 
	C234.146835,240.226868 234.632858,239.566818 235.404358,238.781982 
	C235.238480,239.360428 234.787125,240.063675 233.998291,240.826920 
z"/>
<path fill="#5723CD" opacity="1.000000" stroke="none" 
	d="
M235.888199,238.675140 
	C235.886475,238.294983 236.151016,237.761169 236.679871,237.075653 
	C236.680923,237.456467 236.417694,237.988983 235.888199,238.675140 
z"/>
<path fill="#4223EB" opacity="1.000000" stroke="none" 
	d="
M217.492401,257.505859 
	C217.484650,257.485474 217.500137,257.526276 217.492401,257.505859 
z"/>
<path fill="#5723CD" opacity="1.000000" stroke="none" 
	d="
M224.135345,243.392578 
	C224.032471,243.311066 224.494781,243.190903 224.724106,243.256927 
	C224.953430,243.322952 224.618011,243.511368 224.618011,243.511368 
	C224.618011,243.511368 224.238220,243.474091 224.135345,243.392578 
z"/>
<path fill="#1B21A6" opacity="1.000000" stroke="none" 
	d="
M205.587845,161.316010 
	C204.318405,163.899246 202.929031,166.212738 201.191833,168.515839 
	C200.802689,168.339981 200.761368,168.174530 200.821838,167.608032 
	C199.500443,161.871307 198.270920,156.471069 196.528168,151.241882 
	C196.047012,149.798126 194.037018,148.863876 192.728516,147.695847 
	C193.579926,145.750656 194.431320,143.805466 195.456818,141.624359 
	C196.764175,143.543869 197.897446,145.699295 199.276779,148.455811 
	C199.971893,149.752701 200.420914,150.448486 200.869949,151.144287 
	C200.869949,151.144287 200.971100,151.617813 201.105316,152.068756 
	C201.366913,152.827606 201.585114,153.043976 201.894150,153.168808 
	C201.935730,153.458557 202.026337,153.732056 202.283478,154.171906 
	C203.423294,156.585083 204.445602,158.815674 205.587845,161.316010 
z"/>
<path fill="#A01AA7" opacity="1.000000" stroke="none" 
	d="
M200.911469,150.760040 
	C200.420914,150.448486 199.971893,149.752701 199.467773,148.748840 
	C199.668564,148.365509 199.924423,148.290253 200.572571,148.139679 
	C200.960907,148.834869 200.956955,149.605331 200.911469,150.760040 
z"/>
<path fill="#B11A97" opacity="1.000000" stroke="none" 
	d="
M167.096191,144.957718 
	C168.621445,147.193665 170.382004,149.307083 171.623444,151.690826 
	C174.287933,156.806976 176.684647,162.062561 178.753479,167.633652 
	C172.406693,167.559616 170.624176,171.355606 170.261353,176.491333 
	C168.804764,175.814041 167.806900,175.350067 166.277481,174.638916 
	C167.013382,176.892883 167.516174,178.432846 168.156738,180.281693 
	C169.144333,183.118484 169.994125,185.646393 170.843933,188.174301 
	C166.186783,179.360733 161.529633,170.547165 156.586395,161.490662 
	C155.825134,159.744431 155.349976,158.241165 154.892365,156.388977 
	C155.364746,156.036301 155.819550,156.032501 156.691895,156.400238 
	C157.676132,158.076691 158.242828,159.381622 158.689728,160.410721 
	C161.155304,159.778244 163.083130,158.997284 165.062469,158.831528 
	C170.287476,158.393906 171.777679,155.613739 168.901154,150.638275 
	C168.182632,148.539001 167.639404,146.748367 167.096191,144.957718 
z"/>
<path fill="#C8148D" opacity="1.000000" stroke="none" 
	d="
M169.076431,150.946869 
	C171.777679,155.613739 170.287476,158.393906 165.062469,158.831528 
	C163.083130,158.997284 161.155304,159.778244 158.689728,160.410721 
	C158.242828,159.381622 157.676132,158.076691 157.032242,156.432114 
	C156.733887,154.258087 156.421066,152.428833 156.317963,150.587830 
	C156.219131,148.822723 156.337906,147.045410 156.703339,145.503632 
	C158.113815,147.762543 159.181976,149.791290 160.250137,151.820023 
	C160.559525,151.346832 160.868912,150.873642 161.178299,150.400452 
	C163.811020,150.582596 166.443726,150.764725 169.076431,150.946869 
z"/>
<path fill="#D51487" opacity="1.000000" stroke="none" 
	d="
M168.901154,150.638260 
	C166.443726,150.764725 163.811020,150.582596 161.178299,150.400452 
	C160.868912,150.873642 160.559525,151.346832 160.250137,151.820023 
	C159.181976,149.791290 158.113815,147.762543 157.017426,145.376099 
	C158.026108,143.658188 159.063019,142.297989 160.139816,140.885468 
	C162.079651,141.948975 164.201309,143.112167 166.629990,144.143829 
	C166.937012,144.012299 167.071304,144.474640 167.083740,144.716187 
	C167.639404,146.748367 168.182632,148.539001 168.901154,150.638260 
z"/>
<path fill="#B11A97" opacity="1.000000" stroke="none" 
	d="
M151.527832,148.225876 
	C150.967606,146.810104 150.493515,144.946869 150.224121,142.756134 
	C150.823853,144.211899 151.218918,145.995163 151.527832,148.225876 
z"/>
<path fill="#B11A97" opacity="1.000000" stroke="none" 
	d="
M154.697662,155.210220 
	C154.162262,154.878693 153.678802,154.219711 153.251007,153.243912 
	C153.787643,153.578995 154.268616,154.230865 154.697662,155.210220 
z"/>
<path fill="#1A50E6" opacity="1.000000" stroke="none" 
	d="
M200.720032,168.009094 
	C200.761368,168.174530 200.802689,168.339981 200.938049,168.742950 
	C197.816895,175.403793 194.601700,181.827148 191.157471,188.480133 
	C189.128525,185.935760 187.328613,183.161743 185.213608,179.831665 
	C183.529190,176.358978 182.159882,173.442322 180.790558,170.525681 
	C183.293488,165.766495 185.796402,161.007309 188.621689,156.499969 
	C188.706467,158.213074 188.605286,159.712677 188.207489,161.128952 
	C186.558563,166.999695 191.694992,168.392792 194.937668,170.549042 
	C195.883774,171.178177 198.739563,168.935455 200.720032,168.009094 
z"/>
<path fill="#A01AA7" opacity="1.000000" stroke="none" 
	d="
M170.869080,188.472198 
	C169.994125,185.646393 169.144333,183.118484 168.507202,180.312225 
	C170.629486,179.563232 172.539078,179.092560 175.742188,178.303070 
	C176.224518,178.303070 178.149765,178.303070 179.674591,178.303070 
	C181.109131,179.502777 182.595215,180.745575 184.081284,181.988388 
	C185.036438,183.771942 185.991608,185.555481 186.664703,187.681763 
	C185.911148,188.048096 185.439651,188.071701 184.968140,188.095306 
	C184.540390,188.084793 184.112625,188.074295 182.988876,188.033813 
	C180.597168,187.210129 178.901459,186.416412 176.995316,185.524200 
	C176.003876,187.353394 175.006241,189.194016 174.008606,191.034607 
	C173.276520,190.713318 172.544434,190.392029 171.522949,189.987320 
	C171.120468,189.525986 171.007370,189.148041 170.869080,188.472198 
z"/>
<path fill="#B116A0" opacity="1.000000" stroke="none" 
	d="
M184.115417,181.709106 
	C182.595215,180.745575 181.109131,179.502777 179.674591,178.303070 
	C178.149765,178.303070 176.224518,178.303070 175.742188,178.303070 
	C172.539078,179.092560 170.629486,179.563232 168.369431,180.003357 
	C167.516174,178.432846 167.013382,176.892883 166.277481,174.638916 
	C167.806900,175.350067 168.804764,175.814041 170.261353,176.491333 
	C170.624176,171.355606 172.406693,167.559616 178.734161,168.010025 
	C179.563034,168.745468 179.973740,169.477142 180.587509,170.367249 
	C182.159882,173.442322 183.529190,176.358978 184.932373,179.636978 
	C184.693985,180.475494 184.421768,180.952652 184.115417,181.709106 
z"/>
<path fill="#941BB1" opacity="1.000000" stroke="none" 
	d="
M174.207001,191.315369 
	C175.006241,189.194016 176.003876,187.353394 176.995316,185.524200 
	C178.901459,186.416412 180.597168,187.210129 182.668045,188.026810 
	C183.432297,189.267868 183.821396,190.485962 184.151794,191.520309 
	C182.008743,193.505890 180.032852,195.336624 177.282303,197.885086 
	C176.271332,195.675079 175.338364,193.635605 174.207001,191.315369 
z"/>
<path fill="#1373E7" opacity="1.000000" stroke="none" 
	d="
M162.070404,208.939560 
	C164.808243,203.365875 167.546082,197.792206 170.520889,191.961655 
	C170.955017,191.903259 171.152191,192.101715 171.645569,192.601044 
	C171.946487,193.445908 171.951187,193.989944 171.612610,194.907166 
	C168.539948,199.890533 165.810547,204.500702 162.827423,209.071198 
	C162.405930,209.000900 162.238174,208.970230 162.070404,208.939560 
z"/>
<path fill="#941BB1" opacity="1.000000" stroke="none" 
	d="
M185.104706,188.374725 
	C185.439651,188.071701 185.911148,188.048096 186.737961,188.020905 
	C187.320404,189.012848 187.547546,190.008377 187.774689,191.003922 
	C187.480057,191.111267 187.185410,191.218613 186.890778,191.325974 
	C186.340927,190.435349 185.791092,189.544739 185.104706,188.374725 
z"/>
<path fill="#7B1EBA" opacity="1.000000" stroke="none" 
	d="
M202.273224,214.643707 
	C202.940216,215.229950 203.600006,216.206329 204.340454,217.533417 
	C203.702759,216.934036 202.984390,215.983932 202.273224,214.643707 
z"/>
<path fill="#B116A0" opacity="1.000000" stroke="none" 
	d="
M205.179260,156.295853 
	C205.420395,155.752792 206.195923,155.498383 206.193039,155.253159 
	C206.118866,148.957855 210.663269,148.483566 215.628052,148.006866 
	C217.474625,150.345139 218.912628,152.682755 220.392944,155.089172 
	C215.867401,157.040436 212.047607,158.687408 207.920670,160.466812 
	C207.142441,159.292358 206.246689,157.940567 205.179260,156.295853 
z"/>
<path fill="#0B85F2" opacity="1.000000" stroke="none" 
	d="
M141.154480,188.939728 
	C140.779037,190.486282 140.360306,191.642715 139.397827,193.179871 
	C138.644211,194.452637 138.434372,195.344681 138.224518,196.236710 
	C138.224518,196.236710 138.167099,196.101685 137.995270,196.289734 
	C137.605362,197.062668 137.387283,197.647537 137.169220,198.232407 
	C137.169220,198.232407 137.151627,198.253082 137.166367,198.260406 
	C133.731430,198.148499 130.841263,197.272003 128.939926,193.898468 
	C128.355728,192.861938 126.279198,192.666504 124.907944,192.095047 
	C125.593292,189.726227 126.296158,187.296860 127.004059,184.484436 
	C128.650375,181.727112 130.291641,179.352844 132.773651,175.762329 
	C136.017136,180.736847 138.564163,184.643219 141.154480,188.939728 
z"/>
<path fill="#0B85F2" opacity="1.000000" stroke="none" 
	d="
M163.081161,209.110855 
	C165.810547,204.500702 168.539948,199.890533 171.581329,195.182098 
	C172.228104,196.486267 172.562881,197.888748 172.577148,199.736206 
	C167.334503,204.715454 173.716751,206.118927 174.703644,209.016663 
	C175.132294,211.411087 175.560928,213.805496 175.956543,216.600540 
	C173.488525,219.283859 170.804138,219.280457 168.012589,217.791428 
	C165.852097,216.639008 163.736771,215.401901 161.290268,213.742218 
	C161.015274,212.811325 161.051376,212.340637 161.387405,211.795471 
	C162.151932,210.850922 162.616547,209.980896 163.081161,209.110855 
z"/>
<path fill="#33C4DB" opacity="1.000000" stroke="none" 
	d="
M154.304230,225.002304 
	C155.415237,222.079880 156.847748,219.148499 158.533020,215.987045 
	C157.880081,218.552261 156.974396,221.347549 155.983078,224.482559 
	C155.473541,224.879303 155.049637,224.936325 154.304230,225.002304 
z"/>
<path fill="#33C4DB" opacity="1.000000" stroke="none" 
	d="
M161.087494,211.869965 
	C161.051376,212.340637 161.015274,212.811325 160.954956,213.635071 
	C160.730209,213.961105 160.529678,213.934067 160.029572,213.852783 
	C160.006775,213.112076 160.283539,212.425598 160.780792,211.681396 
	C161.001312,211.623657 161.087494,211.869965 161.087494,211.869965 
z"/>
<path fill="#33C4DB" opacity="1.000000" stroke="none" 
	d="
M158.919220,215.718979 
	C158.897232,215.332748 159.104294,214.724976 159.583862,213.936478 
	C159.620316,214.336319 159.384293,214.916870 158.919220,215.718979 
z"/>
<path fill="#33C4DB" opacity="1.000000" stroke="none" 
	d="
M145.204132,240.898285 
	C147.698639,235.724075 150.541321,230.514206 153.698395,225.143875 
	C153.075836,228.085632 152.138901,231.187866 151.062164,234.623291 
	C149.132339,236.925201 147.342316,238.893921 145.204132,240.898285 
z"/>
<path fill="#A01AA7" opacity="1.000000" stroke="none" 
	d="
M201.825470,152.953339 
	C201.585114,153.043976 201.366913,152.827606 201.209900,152.287094 
	C201.430740,152.233124 201.622910,152.460922 201.825470,152.953339 
z"/>
<path fill="#1373E7" opacity="1.000000" stroke="none" 
	d="
M152.905441,167.264282 
	C152.949677,167.641083 152.780685,168.220398 152.339661,168.946045 
	C152.275818,168.550507 152.484024,168.008636 152.905441,167.264282 
z"/>
<path fill="#6F21C8" opacity="1.000000" stroke="none" 
	d="
M225.800568,200.995117 
	C225.645676,200.993332 225.393097,200.773636 225.127365,200.293610 
	C225.350632,200.249451 225.546844,200.497437 225.800568,200.995117 
z"/>
<path fill="#0CB2F1" opacity="1.000000" stroke="none" 
	d="
M128.791809,215.206879 
	C128.707672,216.069092 128.296585,217.031082 127.582123,218.106659 
	C127.674126,217.249039 128.069504,216.277832 128.791809,215.206879 
z"/>
<path fill="#0CB2F1" opacity="1.000000" stroke="none" 
	d="
M130.292480,212.517517 
	C130.272354,213.154373 129.948792,213.937378 129.356934,214.899811 
	C129.388779,214.274063 129.688919,213.468857 130.292480,212.517517 
z"/>
<path fill="#0CB2F1" opacity="1.000000" stroke="none" 
	d="
M131.026764,211.055496 
	C131.105682,211.243942 131.000351,211.665558 130.576050,212.201447 
	C130.452209,211.973358 130.647354,211.631012 131.026764,211.055496 
z"/>
<path fill="#1373E7" opacity="1.000000" stroke="none" 
	d="
M174.730133,208.628204 
	C173.716751,206.118927 167.334503,204.715454 172.576965,200.099945 
	C173.517059,202.759048 174.136841,205.499405 174.730133,208.628204 
z"/>
<path fill="#0D99EF" opacity="1.000000" stroke="none" 
	d="
M161.387421,211.795471 
	C161.087494,211.869965 161.001312,211.623657 160.998260,211.494537 
	C161.168869,210.698624 161.342545,210.031830 161.793304,209.152298 
	C162.238174,208.970230 162.405930,209.000900 162.827423,209.071198 
	C162.616547,209.980896 162.151932,210.850922 161.387421,211.795471 
z"/>
<path fill="#0D99EF" opacity="1.000000" stroke="none" 
	d="
M138.537674,196.055435 
	C138.434372,195.344681 138.644211,194.452637 139.113815,193.321808 
	C139.199326,194.013382 139.025085,194.943771 138.537674,196.055435 
z"/>
<path fill="#0D99EF" opacity="1.000000" stroke="none" 
	d="
M137.480606,198.093811 
	C137.387283,197.647537 137.605362,197.062668 138.063904,196.263794 
	C138.133575,196.684921 137.962784,197.320053 137.480606,198.093811 
z"/>
<path fill="#0CB2F1" opacity="1.000000" stroke="none" 
	d="
M123.823242,233.731171 
	C123.554199,233.814270 123.451546,233.621246 123.552322,233.266418 
	C123.620758,233.172409 123.854630,233.522858 123.823242,233.731171 
z"/>
<path fill="#123FED" opacity="1.000000" stroke="none" 
	d="
M200.821838,167.608032 
	C198.739563,168.935455 195.883774,171.178177 194.937668,170.549042 
	C191.694992,168.392792 186.558563,166.999695 188.207489,161.128952 
	C188.605286,159.712677 188.706467,158.213074 188.933075,156.331696 
	C188.922089,155.911606 188.946716,155.964172 189.214325,155.880081 
	C189.922165,154.515198 190.362396,153.234406 190.802628,151.953613 
	C191.281265,150.693878 191.759888,149.434143 192.483521,147.935120 
	C194.037018,148.863876 196.047012,149.798126 196.528168,151.241882 
	C198.270920,156.471069 199.500443,161.871307 200.821838,167.608032 
z"/>
<path fill="#1A50E6" opacity="1.000000" stroke="none" 
	d="
M190.513901,152.115112 
	C190.362396,153.234406 189.922165,154.515198 189.186920,155.871109 
	C189.336319,154.723022 189.780746,153.499832 190.513901,152.115112 
z"/>
<path fill="#C8148D" opacity="1.000000" stroke="none" 
	d="
M190.655991,131.413086 
	C190.839035,131.365158 191.154953,131.606140 191.637909,132.098389 
	C191.466263,132.133759 191.127563,131.917862 190.655991,131.413086 
z"/>
<path fill="#5F23D2" opacity="1.000000" stroke="none" 
	d="
M215.186676,238.547913 
	C214.659012,238.293457 214.073502,237.749771 213.553482,236.871582 
	C214.122253,237.110962 214.625549,237.684830 215.186676,238.547913 
z"/>
<path fill="#5F23D2" opacity="1.000000" stroke="none" 
	d="
M217.032913,240.648895 
	C216.521652,240.424622 215.893188,239.921844 215.213058,239.096741 
	C215.746170,239.306412 216.330948,239.838409 217.032913,240.648895 
z"/>
</svg>